<svg fill="none" viewBox="0 0 122 26" xmlns="http://www.w3.org/2000/svg" xmlns:xlink="http://www.w3.org/1999/xlink"><linearGradient id="a" gradientUnits="userSpaceOnUse" x1="41.5222" x2="41.5222" y1="0" y2="26"><stop offset=".4" stop-color="#f00"/><stop offset="1" stop-color="#d42321"/></linearGradient><linearGradient id="b"><stop offset="0" stop-color="#fff"/><stop offset="1" stop-color="#fff" stop-opacity=".25"/></linearGradient><linearGradient id="c" gradientUnits="userSpaceOnUse" x1="117.798" x2="117.783" xlink:href="#b" y1="11.9178" y2="-1.03092"/><linearGradient id="d" gradientUnits="userSpaceOnUse" x1="30.2357" x2="30.19" xlink:href="#b" y1="13.6274" y2="4.91798"/><path d="m119.578 0h-76.3097c-.9533 0-1.7333.78-1.7333 1.73333v22.53337c0 .9533.78 1.7333 1.7333 1.7333h76.3317c.953 0 1.733-.78 1.733-1.7333v-22.53337c-.021-.95333-.801-1.73333-1.755-1.73333z" fill="url(#a)"/><path d="m42.77 12.8917h.1733c5.135-.1734 77.0897-2.6867 77.0897-2.6867.65-.0217 1.3-.49833 1.3-1.32167v-7.15c0-.95333-.78-1.73333-1.733-1.73333h-76.3317c-.9533 0-1.7333.78-1.7333 1.73333v12.52337c0-.1517.0217-1.235 1.235-1.365z" fill="url(#c)" opacity=".4"/><g fill="#fff"><path d="m46.5183 18.6767c-.1516-1.0617.1734-1.625.8017-1.625.585 0 2.015.6283 4.0083.6283 2.1017 0 2.8817-.7367 2.8817-1.7117 0-.6933-.3033-1.3-2.1883-1.82l-2.1667-.585c-2.405-.6283-3.3367-1.8416-3.3367-3.315 0-1.84164 1.4517-3.46664 4.745-3.46664 1.4734 0 3.315.325 4.4417.75834.195 1.04-.13 1.60333-.7583 1.60333-.5634 0-1.8417-.54167-3.64-.54167-1.95 0-2.665.67167-2.665 1.53834 0 .6067.2816 1.17 2.015 1.6683l2.21.6067c2.47.6933 3.4666 1.8417 3.4666 3.4667 0 1.9066-1.4733 3.6183-5.0483 3.6183-1.6033.0217-3.575-.3683-4.7667-.8233z"/><path clip-rule="evenodd" d="m65.1733 19.5217c3.0767 0 5.8934-2.3617 5.8934-6.37 0-3.9867-2.8167-6.37004-5.8934-6.37004-1.8416 0-3.3583.86667-4.2466 2.10167v-1.17c0-.49833-.2817-.80167-1.105-.80167-.4117 0-.8017.065-.9967.10834v16.25c.195.065.585.1083.9967.1083.8233 0 1.105-.325 1.105-.8016v-5.1567c.91 1.235 2.405 2.1017 4.2466 2.1017zm-.4116-10.89837c2.405 0 4.1816 1.84167 4.1816 4.52837 0 2.6866-1.7766 4.5283-4.1816 4.5283-1.6467 0-3.1417-.9317-3.835-2.3183v-4.42c.6933-1.36504 2.21-2.31837 3.835-2.31837z" fill-rule="evenodd"/><path clip-rule="evenodd" d="m79.365 6.80333c-3.5967 0-6.2833 2.70833-6.2833 6.34837 0 3.6183 2.6866 6.37 6.2833 6.37 3.6183 0 6.305-2.7517 6.305-6.37 0-3.64004-2.6867-6.34837-6.305-6.34837zm0 1.82c2.2967 0 4.1817 1.71167 4.1817 4.52837 0 2.7733-1.885 4.5283-4.1817 4.55-2.275 0-4.16-1.7767-4.16-4.55 0-2.8167 1.885-4.52837 4.16-4.52837z" fill-rule="evenodd"/><path d="m95.8317 7.93c0 .845-.3467 1.01833-1.235 1.01833-1.755 0-3.25.82334-4.16 2.72997v6.9117c0 .52-.2817.8017-1.1267.8017-.3466 0-.7583-.0434-.975-.1084v-12.2633c.195-.04333.6067-.10833.975-.10833.845 0 1.1267.30333 1.1267.80166v1.71167c1.1917-1.82 3.0117-2.73 5.2867-2.42667.0216.17334.1083.56334.1083.93167z"/><path d="m105.018 18.6767c-1.061.52-2.296.845-3.531.845-2.427 0-3.8787-1.43-3.8787-3.8134v-10.52997c0-.54167.3034-.88834 1.1267-.88834.3467 0 .7583.08667.975.13v2.665h4.767c.021.17334.086.54167.086.845 0 .73667-.303.99667-.758.99667h-4.0733v6.65164c0 1.43.6713 2.1234 2.0153 2.1234 1.235 0 1.906-.5417 2.491-.5417s.91.4983.78 1.5167z"/><path d="m106.47 18.6767c-.152-1.0617.173-1.625.802-1.625.585 0 2.015.6283 4.008.6283 2.102 0 2.882-.7367 2.882-1.7117 0-.6933-.304-1.3-2.189-1.82l-2.166-.585c-2.405-.6283-3.337-1.8416-3.337-3.315 0-1.84164 1.452-3.46664 4.745-3.46664 1.473 0 3.315.325 4.442.75834.195 1.04-.13 1.60333-.759 1.60333-.563 0-1.841-.54167-3.64-.54167-1.95 0-2.665.67167-2.665 1.53834 0 .6067.282 1.17 2.015 1.6683l2.21.6067c2.47.6933 3.467 1.8417 3.467 3.4667 0 1.9066-1.473 3.6183-5.048 3.6183-1.604.0217-3.575-.3683-4.767-.8233z"/></g><path clip-rule="evenodd" d="m16.4233 18.0051c0 1.1917-.4766 1.885-2.8166 1.885-.3034 0-.585-.0216-.845-.065v-15.85998c0-1.21334.4116-2.47 2.7733-2.47.3033 0 .6067.02166.8883.08666zm9.555 6.1317c.3034.1517.9317.3466 1.7334.3683 1.365.0217 2.1016-.4983 2.6433-1.7116l7.28-16.20672c-.3033-.15166-.975-.34666-1.5167-.34666-.9316-.02167-2.1883.17333-2.99 2.08l-2.3616 5.54668-4.615-7.51835c-.3034-.08667-1.04-.21667-1.56-.21667-1.6467 0-2.5567.60667-3.4884 1.625l-4.5066 4.89672 3.6183 5.6766c.6717 1.04 1.5383 1.56 2.9683 1.56.9317 0 1.7117-.2166 2.08-.39l-4.355-6.5216 3.0767-3.27172 5.07 7.93002zm-18.80663-4.355c2.96833-.325 4.42003-1.95 4.42003-4.1817 0-1.9283-1.1917-3.4883-3.9217-3.9433l-2.68667-.4983c-.86666-.1517-1.40833-.3467-1.40833-.8451 0-.47662.56333-.84495 1.92833-.84495.78208 0 1.50014.04268 2.11344.07912.45713.02717.85605.05088 1.1799.05088.99666 0 2.01503-.41167 2.01503-2.36167 0-.26-.0434-.52-.0867-.75833-1.47333-.195-4.16-.455-6.34833-.21667-2.90334.30334-4.37667 2.05834-4.37667 4.13832 0 1.7117 1.25667 3.3367 3.59667 3.77l2.81666.5417c1.04.2167 1.56.4333 1.56.9967 0 .4116-.41166.8666-1.73333.8666-.63322 0-1.37857-.0472-2.09129-.0923-.65294-.0414-1.2785-.081-1.76538-.081-.99666 0-2.036663.4333-2.036663 2.3833 0 .2384.043333.5417.086666.78 1.473337.1734 4.593337.455 6.738337.2167z" fill="#ebebeb" fill-rule="evenodd"/><path clip-rule="evenodd" d="m15.535 1.49512c-2.3617 0-2.7517 1.25666-2.7517 2.47v10.87668c0-.4333.3467-.8883.8884-.91.1865-.0104.5366-.0207.8866-.0311.3819-.0113.7638-.0226.9334-.0339.3683-.0217.91-.26.9316-.9317v-11.35332c-.2816-.04333-.585-.08666-.8883-.08666zm10.6167 4.85333 4.5066 7.32335c-.1733-.2383-.39-.3467-.585-.3467-.0679 0-.8405.0296-1.578.0579h-.0005l-.0023.0001c-.6721.0257-1.3142.0504-1.3658.0504-.13 0-.6934 0-1.0617-.4984l-2.08-3.24998-3.0767 3.27168.8017 1.2133c-.2167-.2816-.5633-.52-1.1267-.4983-.0818 0-.608.0193-1.1635.0397-.621.0228-1.2788.047-1.3931.047-.6067.0216-.91-.325-1.0617-.5417l-.3683-.5633 4.5066-4.89672c.9317-1.01833 1.8417-1.625 3.4884-1.625.52 0 1.2566.13 1.56.21667zm8.813 6.18435.0053-.0093 2.665-5.93672c-.3033-.17333-.975-.34666-1.495-.34666-.9317-.02167-2.1883.17333-2.99 2.08l-2.2866 5.39278c-.0068.0151-.0101.0239-.0101.0239l.0101-.0239c.0403-.0881.2049-.3909.5749-.4094 0 0 2.2534-.0867 2.4267-.0867.7222-.0213 1.0071-.5215 1.0997-.684zm-30.00303-1.4177 2.68666.4984c2.75167.4983 3.94337 2.0583 3.96497 3.9866 0 .1354 0 .2536-.0154.3698.0338-1.0017-.6321-1.95-1.7829-1.9081-.2129.0089-.7345.025-1.29865.0424-.81378.0252-1.71608.0531-1.90802.0659-1.04.0434-2.405-.0433-3.01166-.1516-.73667-.13-1.45167-.325-2.16667-.78-.953333-.7367-1.43-1.7767-1.43-2.8384 0-2.07998 1.47333-3.83498 4.355-4.18165 2.21-.23833 4.875.04333 6.3483.21667.065.26.0867.49833.0867.75833 0 1.95-1.01833 2.36167-2.015 2.36167-.32533 0-.73042-.02393-1.19302-.05125-.6157-.03637-1.33328-.07875-2.10031-.07875-1.365 0-1.92834.39-1.92834.84498 0 .4984.54167.6934 1.40834.845zm6.63623 4.8548c-.0018.014-.0039.0279-.0062.0419v.0217.0433c.0029-.0357.005-.0713.0062-.1069z" fill="url(#d)" fill-rule="evenodd"/></svg>