<?xml version='1.0' encoding='utf-8'?>
<!DOCTYPE svg PUBLIC '-//W3C//DTD SVG 1.1//EN' 'http://www.w3.org/Graphics/SVG/1.1/DTD/svg11.dtd'>
<!-- Uploaded to: SVG Repo, www.svgrepo.com, Generator: SVG Repo Mixer Tools -->
<svg fill="#000000" height="800px" width="800px" version="1.1" xmlns="http://www.w3.org/2000/svg" viewBox="0 0 512 512" xmlns:xlink="http://www.w3.org/1999/xlink" enable-background="new 0 0 512 512">
  <g>
    <g>
      <g>
        <path d="m468.1,198.6c-4.8-74.7-59.1-132.1-126.4-132.1-13.1,0-25.9,2.2-38.3,6.7-23.5-38.2-61.9-61.2-104.1-61.2-70,0-126.9,64.1-126.9,142.8 0,6.1 0.4,12.2 1.1,18.4-37.8,25.6-61.5,72-61.5,122.4 0,35.5 11.6,69.5 32.7,95.7 7.1,8.8 19.9,10.2 28.7,3.2 8.8-7.1 10.2-19.9 3.2-28.7-15.3-19.1-23.7-44-23.7-70.2 0-40.8 20.6-77.6 52.4-93.8 8.2-4.2 12.6-13.4 10.7-22.4-1.8-8.4-2.7-16.7-2.7-24.6 0-56.2 38.6-102 86-102 32.1,0 61.3,21.2 76.3,55.2 8.8,19.9 23.8,12.4 28.9,9.5 11.8-6.8 24.3-10.2 37.2-10.2 46.3,0 84.9,44.7 85.9,99.6 0.1,5 2,9.8 5.4,13.5 18.1,19.6 28.1,46.3 28.1,75.2 0,56.2-38.6,102-86,102h-197.8l29-28.6c8-7.9 8.1-20.8 0.2-28.9-7.9-8-20.8-8.1-28.9-0.2l-64.5,63.6c-9.8,9.8-7.9,21.2 0,29.1l64.5,63.6c8,7.9 21,7.8 28.9-0.2 7.9-8 7.8-21-0.2-28.9l-29.1-28.6h197.8c70,0 126.9-64.1 126.9-142.8 0.1-36.5-11.9-70.6-33.8-97.1z"/>
      </g>
    </g>
  </g>
</svg>