<?xml version="1.0" encoding="utf-8"?>
<!-- Uploaded to: SVG Repo, www.svgrepo.com, Generator: SVG Repo Mixer Tools -->
<svg xmlns="http://www.w3.org/2000/svg" xmlns:xlink="http://www.w3.org/1999/xlink" version="1.1" id="cloudtarget"  viewBox="0 0 230.1797 230.1816" enable-background="new 0 0 230.1797 230.1816" xml:space="preserve" width="512" height="512">
<g>
	<path fill="#5CB0FF" d="M129.5039,101.3789l-3.9492,2.5488l-1.8867-4.3008C120.5703,92.5645,113.5547,88,105.793,88   c-9.6367,0-17.9297,7.123-19.2852,16.5703L86,108.0898L82.4453,108c-9.0312,0-16.2656,7.1777-16.2656,16s7.2344,16,16.1289,16   h58.7109c11.668,0,21.1602-9.4199,21.1602-21s-9.4922-21-21.1602-21C136.9102,98,132.9258,99.168,129.5039,101.3789z"/>
	<path fill="#1C71DA" d="M128.9453,92.5957C123.9453,84.8281,115.2617,80,105.793,80c-12.4648,0-23.3398,8.4766-26.5352,20.1914   C67.3906,101.6855,58.1797,111.793,58.1797,124c0,13.2344,10.8242,24,24.1289,24h58.7109c16.0781,0,29.1602-13.0098,29.1602-29   s-13.082-29-29.1602-29C136.8203,90,132.7148,90.8887,128.9453,92.5957z M162.1797,119c0,11.5801-9.4922,21-21.1602,21H82.3086   c-8.8945,0-16.1289-7.1777-16.1289-16s7.2344-16,16.2656-16L86,108.0898l0.5078-3.5195C87.8633,95.123,96.1562,88,105.793,88   c7.7617,0,14.7773,4.5645,17.875,11.627l1.8867,4.3008l3.9492-2.5488C132.9258,99.168,136.9102,98,141.0195,98   C152.6875,98,162.1797,107.4199,162.1797,119z"/>
	<path fill="#1C71DA" d="M221.957,124.0762c-2.2109-0.2461-4.1719,1.3418-4.418,3.5332   c-5.293,47.6758-43.7227,86.2441-91.3828,91.707c-2.1914,0.252-3.7695,2.2363-3.5156,4.4297   c0.2344,2.041,1.9609,3.5449,3.9688,3.5449c0.1523,0,0.3047-0.0078,0.4609-0.0254c51.3281-5.8848,92.7188-47.4238,98.4219-98.7734   C225.7344,126.2969,224.1523,124.3184,221.957,124.0762z"/>
	<path fill="#1C71DA" d="M126.1055,12.6758c47.9844,5.4746,86.4648,44.3125,91.5039,92.3457   c0.2148,2.0547,1.9492,3.582,3.9727,3.582c0.1367,0,0.2812-0.0078,0.4219-0.0215c2.1953-0.2305,3.7891-2.1992,3.5586-4.3965   c-5.4219-51.7324-46.8711-93.5605-98.5508-99.459c-2.2305-0.2578-4.1797,1.3301-4.4258,3.5215   C122.332,10.4434,123.9102,12.4258,126.1055,12.6758z"/>
	<path fill="#1C71DA" d="M102.6797,219.3711c-47.7852-5.2539-86.4023-43.7344-91.832-91.4961   c-0.2461-2.1934-2.1602-3.7871-4.4258-3.5234c-2.1953,0.25-3.7695,2.2305-3.5195,4.4258   c5.8438,51.4434,47.4375,92.8867,98.9023,98.5469c0.1484,0.0156,0.2969,0.0234,0.4414,0.0234c2.0156,0,3.7461-1.5156,3.9727-3.5625   C106.4609,221.5898,104.875,219.6133,102.6797,219.3711z"/>
	<path fill="#1C71DA" d="M6.4023,107.9805c0.1484,0.0156,0.2969,0.0234,0.4414,0.0234c2.0117,0,3.7461-1.5137,3.9727-3.5605   c5.3086-48.0469,44.0469-86.6719,92.1094-91.8438c2.1953-0.2363,3.7852-2.207,3.5469-4.4043   c-0.2344-2.1934-2.1211-3.7852-4.4062-3.5488C50.3047,10.2148,8.582,51.8164,2.8633,103.5645   C2.6211,105.7598,4.2031,107.7363,6.4023,107.9805z"/>
	<path fill="#1C71DA" d="M42.1797,120c2.2109,0,4-1.791,4-4s-1.7891-4-4-4H4c-2.2109,0-4,1.791-4,4s1.7891,4,4,4H42.1797z"/>
	<path fill="#1C71DA" d="M226.1797,112H188c-2.2109,0-4,1.791-4,4s1.7891,4,4,4h38.1797c2.2109,0,4-1.791,4-4   S228.3906,112,226.1797,112z"/>
	<path fill="#1C71DA" d="M114.1797,46.1816c2.2109,0,4-1.791,4-4V4c0-2.209-1.7891-4-4-4s-4,1.791-4,4v38.1816   C110.1797,44.3906,111.9688,46.1816,114.1797,46.1816z"/>
	<path fill="#1C71DA" d="M114.1797,184c-2.2109,0-4,1.791-4,4v38.1816c0,2.209,1.7891,4,4,4s4-1.791,4-4V188   C118.1797,185.791,116.3906,184,114.1797,184z"/>
</g>
<path fill="#FF5D5D" d="M138.4316,63.8237c-1.0234,0-2.0469-0.3906-2.8281-1.1714c-1.5625-1.5625-1.5625-4.0952,0-5.6572  l14.1426-14.1421c1.5605-1.5615,4.0938-1.5615,5.6562,0c1.5625,1.5625,1.5625,4.0952,0,5.6572l-14.1426,14.1421  C140.4795,63.4331,139.4551,63.8237,138.4316,63.8237z"/>
<path fill="#FF5D5D" d="M152.5742,63.8223c-1.0234,0-2.0479-0.3906-2.8281-1.1714l-14.1426-14.1426  c-1.5625-1.5625-1.5625-4.0947,0-5.6572c1.5605-1.5615,4.0957-1.5615,5.6562,0l14.1426,14.1426  c1.5625,1.5625,1.5625,4.0947,0,5.6572C154.6221,63.4316,153.5977,63.8223,152.5742,63.8223z"/>
<path fill="#00D40B" d="M80.4316,191.8237c-7.7197,0-14-6.2803-14-14s6.2803-14,14-14s14,6.2803,14,14  S88.1514,191.8237,80.4316,191.8237z M80.4316,171.8237c-3.3086,0-6,2.6914-6,6s2.6914,6,6,6s6-2.6914,6-6  S83.7402,171.8237,80.4316,171.8237z"/>
<path fill="#FFC504" d="M57.7461,78.4492c-1.0234,0-2.0469-0.3906-2.8281-1.1714L43.6035,65.9644  c-0.75-0.75-1.1719-1.7676-1.1719-2.8286s0.4219-2.0786,1.1719-2.8286L54.918,48.9937c1.5625-1.5615,4.0938-1.5615,5.6562,0  l11.3135,11.3135c1.5625,1.5625,1.5625,4.0947,0,5.6572L60.5742,77.2778C59.7939,78.0586,58.7695,78.4492,57.7461,78.4492z   M52.0889,63.1357l5.6572,5.6567l5.6562-5.6567l-5.6562-5.6567L52.0889,63.1357z"/>
</svg>